<?xml version="1.0" ?><svg viewBox="0 0 512 512" xmlns="http://www.w3.org/2000/svg"><defs><style>.cls-1{fill:#202d40;}.cls-2{fill:#7f8c8d;}.cls-3{fill:#2e4060;}.cls-4{fill:#c0402b;}</style></defs><title/><g id="Google"><g id="Gbusiness"><path class="cls-1" d="M456.61,207.42V428.67a26.67,26.67,0,0,1-26.68,26.67H82.06a26.67,26.67,0,0,1-26.68-26.67V207.42a55.76,55.76,0,0,0,83.68-41.26l1.9-15.63a59.36,59.36,0,0,0-.43,7,57.74,57.74,0,0,0,115.47-.1,57.74,57.74,0,0,0,115.47.08,56.13,56.13,0,0,0-.43-6.92l1.9,15.57a55.76,55.76,0,0,0,83.67,41.26Z"/><path class="cls-2" d="M371,195.89a56.13,56.13,0,0,1,.43,6.92A57.74,57.74,0,0,1,256,202.73l-27.5-67.11,27.5-79h98.07l29.49,79.05-12.53,60A.76.76,0,0,1,371,195.89Z"/><path class="cls-2" d="M157.91,56.66l25.53,86.76L141,195.74h0l-1.91,15.72a55.77,55.77,0,0,1-83.68,41.26h0a55.7,55.7,0,0,1-27.38-48v-4.13l38-130A19.34,19.34,0,0,1,84.53,56.66Z"/><path class="cls-3" d="M456.61,252.72a55.74,55.74,0,0,1-83.67-41.26L371,195.89a.76.76,0,0,0,0-.15l-17-139.08h73.39A19.35,19.35,0,0,1,446,70.59l38,130v4.13A55.73,55.73,0,0,1,456.61,252.72Z"/><path class="cls-3" d="M256,56.66V202.73a57.74,57.74,0,0,1-115.47.1,59.36,59.36,0,0,1,.43-7s0-.05,0-.09L157.91,56.66Z"/><path class="cls-4" d="M370.63,424.76a57.31,57.31,0,1,1,40.53-97.84L399,339.07a40.13,40.13,0,1,0,10.82,37h-39.2V358.86h57.31v8.59A57.38,57.38,0,0,1,370.63,424.76Z"/></g></g></svg>